# xmcd
#
# Track frame offsets: 
#        150
#        16075
#        30031
#        46248
#        56299
#        69130
#        81552
#        94499
#        104717
#        116373
#        128122
#        140410
#        151255
#        162296
#        175751
#        188054
#        199333
#        210714
#        228939
#        238156
#        250004
#        262839
#        275352
#        294778
#        311039
#        323248
#
# Disc length: 4458 seconds
#
# Revision: 0
# Processed by: cddbd v1.5.2PL0 Copyright (c) Steve Scherf et al.
# Submitted via: ExactAudioCopy v1.1
#
DISCID=5d11681a
DTITLE=Various Artist - All Time Country Favourites - Kings and Queens 
DTITLE=Disc 3
DYEAR=2011
DGENRE=Country
TTITLE0=Kenny Rogers - The Gambler
TTITLE1=Glen Campbell - Country Boy ( You got your feet in LA )
TTITLE2=Willie Nelson - Blue Skies
TTITLE3=Jim Reeves - I won't come in while he's there
TTITLE4=Charley Pride - I'd rather love you
TTITLE5=Sonny James - That's why I love you like I do
TTITLE6=Conway Twitty - Next in line
TTITLE7=Charlie Rich - I don't see me in your eyes anymore
TTITLE8=Ernest Tubb and his Texas Troubadours - Thanks a lot
TTITLE9=Ray Price - My shoes keep walking back to you
TTITLE10=Faron Young - Walk tall ( walk straight )
TTITLE11=Eddy Arnold - Eddy's song
TTITLE12=Hank Williams - I'll never get out of this world alive
TTITLE13=Bobby Bare - The all-American boy
TTITLE14=Bill Anderson - My life ( throw it away if you want to )
TTITLE15=Marty Robbins - Begging to you
TTITLE16=Waylon Jennings - Rainy day woman
TTITLE17=Johnny Cash - One piece at a time
TTITLE18=Don Gibson - Just one time
TTITLE19=Carl Smith - Are you teasing me
TTITLE20=George Jones - Still doin' time
TTITLE21=Merle Haggard - If we make it through December
TTITLE22=Don Williams - You've got a friend
TTITLE23=Mickey Gilley - Stand by me
TTITLE24=B J Thomas - Hooked on a feeling
TTITLE25=Alan Jackson - Chattahoochee
EXTD=
EXTT0=
EXTT1=
EXTT2=
EXTT3=
EXTT4=
EXTT5=
EXTT6=
EXTT7=
EXTT8=
EXTT9=
EXTT10=
EXTT11=
EXTT12=
EXTT13=
EXTT14=
EXTT15=
EXTT16=
EXTT17=
EXTT18=
EXTT19=
EXTT20=
EXTT21=
EXTT22=
EXTT23=
EXTT24=
EXTT25=
PLAYORDER=
